<svg version="1.1" id="Layer_1" xmlns="http://www.w3.org/2000/svg" xmlns:xlink="http://www.w3.org/1999/xlink" x="0px" y="0px"
	 width="100%" viewBox="0 0 816 528" enable-background="new 0 0 816 528" xml:space="preserve">
<path fill="#000000" opacity="1.000000" stroke="none" 
	d="
M463.916626,362.371246 
	C443.396332,363.330444 425.673615,357.374634 410.376892,344.418823 
	C394.621185,331.074219 385.464142,313.898834 383.937531,293.485809 
	C381.522339,261.191376 394.155182,235.625366 422.463379,219.545593 
	C449.562225,204.152725 476.944061,205.944138 503.321442,222.513641 
	C504.583557,223.306488 505.737274,224.286362 506.874908,225.257172 
	C507.495667,225.786896 507.976440,226.480682 508.731567,227.341232 
	C506.309265,231.563446 502.827454,234.854538 499.561829,238.315277 
	C497.547333,240.450089 495.897034,238.755371 494.314117,237.680832 
	C482.887360,229.924118 470.301208,226.688644 456.517792,227.279633 
	C429.556091,228.435623 404.657410,253.386475 403.175812,280.337524 
	C401.809631,305.188263 410.439911,325.116058 432.289032,337.410614 
	C452.430115,348.744110 473.102448,348.236298 492.598358,334.801117 
	C502.332245,328.093231 510.044647,312.833160 509.689362,301.303009 
	C499.100952,301.303009 488.482544,301.364075 477.865204,301.286377 
	C466.585052,301.203827 467.904266,302.703278 467.532166,291.214813 
	C467.378143,286.459625 468.881958,284.785431 473.732391,284.854248 
	C489.887482,285.083466 506.049011,285.027740 522.205750,284.860809 
	C526.582581,284.815582 528.484131,286.046967 528.402588,290.807434 
	C527.911682,319.483643 517.346191,342.291473 490.817688,355.751862 
	C482.597443,359.922760 473.731995,362.255768 463.916626,362.371246 
z"/>
<path fill="#000000" opacity="1.000000" stroke="none" 
	d="
M626.376892,217.471786 
	C642.643494,225.989578 650.569702,239.527740 651.252319,257.139343 
	C652.121094,279.557159 642.127136,295.414337 620.192139,304.184235 
	C633.199219,322.673279 645.942200,340.786774 659.492310,360.047577 
	C652.215210,360.608887 646.190674,360.638885 640.183899,360.077850 
	C638.460815,359.916931 637.786377,357.886993 636.844604,356.551300 
	C626.385132,341.716705 615.881287,326.912201 605.578552,311.969208 
	C603.264099,308.612366 600.702759,307.065918 596.526611,307.234436 
	C588.875977,307.543121 581.196228,307.528076 573.544006,307.239166 
	C569.281128,307.078186 568.146545,308.713013 568.198853,312.741364 
	C568.380676,326.732361 568.122314,340.729462 568.340027,354.719452 
	C568.407288,359.045135 567.101624,360.527557 562.667114,360.504761 
	C549.671021,360.437958 549.667053,360.611603 549.665894,347.652527 
	C549.662231,304.672638 549.654846,261.692749 549.677002,218.712875 
	C549.678101,216.580215 549.307434,214.394653 550.126770,212.351105 
	C550.459778,212.143188 550.735352,211.820389 551.009766,211.821396 
	C571.137329,211.895676 591.289917,210.563980 611.380920,212.585342 
	C616.523499,213.102722 621.421448,214.899445 626.376892,217.471786 
M568.277954,232.911774 
	C568.275452,250.403549 568.256836,267.895355 568.289124,285.387054 
	C568.293518,287.787598 567.677979,290.757050 571.688293,290.636597 
	C583.323608,290.287170 595.006653,291.605835 606.596924,289.741486 
	C622.304504,287.214783 632.293457,276.618408 632.661926,262.191589 
	C633.125061,244.056931 625.138672,233.291199 608.008240,230.123581 
	C595.831604,227.871994 583.429016,229.362061 571.127319,229.200607 
	C569.333679,229.177078 568.404907,230.230713 568.277954,232.911774 
z"/>
<path fill="#000000" opacity="1.000000" stroke="none" 
	d="
M241.314636,273.890961 
	C249.890884,271.519409 257.922424,271.236206 266.325439,275.562653 
	C259.065674,284.637909 254.179886,294.082062 254.092804,305.696899 
	C254.005524,317.339539 258.984192,326.727692 265.880798,335.362549 
	C257.912445,341.776978 241.369263,340.146729 231.512054,332.265686 
	C211.115952,315.958496 215.508820,283.590424 241.314636,273.890961 
z"/>
<path fill="#000000" opacity="1.000000" stroke="none" 
	d="
M285.959381,261.965240 
	C285.134644,266.741821 285.591705,271.412964 282.205078,276.011749 
	C273.379456,269.260925 263.935883,263.974457 252.203903,264.061707 
	C240.611511,264.147980 231.051102,268.690094 222.305084,276.335022 
	C218.248611,269.475067 217.897781,262.705170 219.190140,255.969681 
	C222.486740,238.788483 237.022141,227.919327 255.068039,228.718246 
	C270.644592,229.407822 283.422363,241.955597 285.490204,258.582733 
	C285.613251,259.571960 285.803497,260.552856 285.959381,261.965240 
z"/>
<path fill="#000000" opacity="1.000000" stroke="none" 
	d="
M262.488342,308.455139 
	C261.940613,302.501526 262.508423,297.189178 265.811310,291.672699 
	C274.543488,299.125305 284.024109,303.887390 295.584747,303.951538 
	C307.259430,304.016266 316.794037,299.340546 325.251068,291.954437 
	C330.995056,297.806091 330.776215,313.520874 324.124695,323.987488 
	C316.899475,335.356842 301.833252,341.798615 289.046509,338.711273 
	C273.757874,335.019836 263.568848,323.545685 262.488342,308.455139 
z"/>
<path fill="#000000" opacity="1.000000" stroke="none" 
	d="
M283.627686,289.630127 
	C298.737488,270.018463 296.730835,251.040604 282.001556,232.113754 
	C292.132660,226.974258 301.735474,227.571259 311.035950,232.343979 
	C324.696472,239.354141 331.963989,254.578415 328.843964,268.608765 
	C325.313232,284.486237 312.361053,295.541595 296.329041,295.967133 
	C292.396576,296.071472 288.406708,295.325836 284.622040,293.902374 
	C282.362976,293.052704 281.693298,291.890961 283.627686,289.630127 
z"/>
</svg>